<svg xmlns="http://www.w3.org/2000/svg" viewBox="0 0 160 120" fill="none">
  <defs><linearGradient id="g" x1="0" y1="0" x2="1" y2="1"><stop offset="0" stop-color="#a78bfa"/><stop offset="1" stop-color="#2563eb"/></linearGradient></defs>
  <path d="M20 26a12 12 0 0 1 12-12h58a12 12 0 0 1 12 12v30a12 12 0 0 1-12 12H52l-18 14V68h-2a12 12 0 0 1-12-12z" fill="url(#g)"/>
  <g stroke="#fff" stroke-width="3" stroke-linecap="round" opacity=".9"><path d="M36 32h50M36 44h34"/></g>
  <path d="M140 58a12 12 0 0 0-12-12H78a12 12 0 0 0-12 12v24a12 12 0 0 0 12 12h34l16 12V94a12 12 0 0 0 12-12z" fill="url(#g)" opacity=".2"/>
  <path d="M140 58a12 12 0 0 0-12-12H78a12 12 0 0 0-12 12v24a12 12 0 0 0 12 12h34l16 12V94a12 12 0 0 0 12-12z" stroke="url(#g)" stroke-width="3"/>
  <g stroke="url(#g)" stroke-width="3" stroke-linecap="round"><path d="M80 64h44M80 76h28"/></g>
  <text x="104" y="24" font-family="system-ui" font-size="14" font-weight="700" fill="url(#g)">EN</text>
</svg>
